# xmcd CD database file
#
# Track frame offsets:
#	150
#	18512
#	36495
#	49462
#	58370
#	72175
#	86470
#	105260
#	124557
#	137095
#	148787
#
# Disc length: 2246 seconds
#
# Revision: 0
# Processed by: cddbd v1.5.2PL0 Copyright (c) Steve Scherf et al.
# Submitted via: CDex 1.70beta2
#
DISCID=a008c40b
DTITLE=The Doors - Morrison Hotel
DYEAR=1970
DGENRE=Blues
TTITLE0=Roadhouse Blues
TTITLE1=Waiting for the Sun
TTITLE2=You Make Me Real
TTITLE3=Peace Frog
TTITLE4=Blue Sunday
TTITLE5=Ship of Fools
TTITLE6=Land Ho!
TTITLE7=The Spy
TTITLE8=Queen of the Highway
TTITLE9=Indian Summer
TTITLE10=Maggie McGill
EXTD=YEAR: 1970
EXTT0=
EXTT1=
EXTT2=
EXTT3=
EXTT4=
EXTT5=
EXTT6=
EXTT7=
EXTT8=
EXTT9=
EXTT10=
PLAYORDER=
